<svg xmlns="http://www.w3.org/2000/svg" width="1400" height="360" viewBox="0 0 1400 360"><defs><marker id="arrow" markerWidth="10" markerHeight="10" refX="8" refY="3" orient="auto"><path d="M0,0 L0,6 L9,3 z" fill="#94a3b8"/></marker></defs><rect width="100%" height="100%" fill="#020617"/><text x="700" y="55" font-family="Segoe UI, Arial" font-size="28" font-weight="700" fill="#f8fafc" text-anchor="middle">Multimodal Retrieval and Grounded Answer</text><rect x="60" y="135" width="230" height="100" rx="14" fill="#111827" stroke="#22d3ee" stroke-width="2"/><text x="175" y="169" font-family="Segoe UI, Arial" font-size="18" font-weight="700" fill="#22d3ee" text-anchor="middle">User question</text><text x="175" y="197" font-family="Segoe UI, Arial" font-size="14" font-weight="400" fill="#cbd5e1" text-anchor="middle">single or joint modality</text><rect x="325" y="135" width="230" height="100" rx="14" fill="#111827" stroke="#34d399" stroke-width="2"/><text x="440" y="169" font-family="Segoe UI, Arial" font-size="18" font-weight="700" fill="#34d399" text-anchor="middle">Query analysis</text><text x="440" y="197" font-family="Segoe UI, Arial" font-size="14" font-weight="400" fill="#cbd5e1" text-anchor="middle">terms + modality hints</text><line x1="290" y1="185" x2="325" y2="185" stroke="#94a3b8" stroke-width="2" marker-end="url(#arrow)"/><rect x="590" y="135" width="230" height="100" rx="14" fill="#111827" stroke="#a78bfa" stroke-width="2"/><text x="705" y="169" font-family="Segoe UI, Arial" font-size="18" font-weight="700" fill="#a78bfa" text-anchor="middle">Filtered scoring</text><text x="705" y="197" font-family="Segoe UI, Arial" font-size="14" font-weight="400" fill="#cbd5e1" text-anchor="middle">text / image / table</text><line x1="555" y1="185" x2="590" y2="185" stroke="#94a3b8" stroke-width="2" marker-end="url(#arrow)"/><rect x="855" y="135" width="230" height="100" rx="14" fill="#111827" stroke="#fbbf24" stroke-width="2"/><text x="970" y="169" font-family="Segoe UI, Arial" font-size="18" font-weight="700" fill="#fbbf24" text-anchor="middle">Ranked evidence</text><text x="970" y="197" font-family="Segoe UI, Arial" font-size="14" font-weight="400" fill="#cbd5e1" text-anchor="middle">record IDs + sources</text><line x1="820" y1="185" x2="855" y2="185" stroke="#94a3b8" stroke-width="2" marker-end="url(#arrow)"/><rect x="1120" y="135" width="230" height="100" rx="14" fill="#111827" stroke="#fb7185" stroke-width="2"/><text x="1235" y="169" font-family="Segoe UI, Arial" font-size="18" font-weight="700" fill="#fb7185" text-anchor="middle">Grounded answer</text><text x="1235" y="197" font-family="Segoe UI, Arial" font-size="14" font-weight="400" fill="#cbd5e1" text-anchor="middle">or explicit no-hit</text><line x1="1085" y1="185" x2="1120" y2="185" stroke="#94a3b8" stroke-width="2" marker-end="url(#arrow)"/></svg>